<?xml version="1.0" encoding="utf-8"?>
<!-- Generator: Adobe Illustrator 23.0.4, SVG Export Plug-In . SVG Version: 6.00 Build 0)  -->
<svg version="1.1" id="Layer_1" xmlns="http://www.w3.org/2000/svg" xmlns:xlink="http://www.w3.org/1999/xlink" x="0px" y="0px"
	 viewBox="0 0 436.5 314.6" style="enable-background:new 0 0 436.5 314.6;" xml:space="preserve">
<style type="text/css">
	.st0{fill:none;stroke:#63C29B;stroke-miterlimit:10;}
	.st1{fill:#FFFFFF;stroke:#63C29B;stroke-miterlimit:10;}
	.st2{fill:none;stroke:#63C29B;stroke-linecap:round;stroke-miterlimit:10;}
	.st3{fill:#FFFFFF;stroke:#63C29B;stroke-linecap:round;stroke-miterlimit:10;}
	.st4{fill:#63C29B;}
	.st5{fill:#FFFFFF;}
</style>
<g>
	<defs>
		<rect id="XMLID_1_" width="436.5" height="314.6"/>
	</defs>
	<use xlink:href="#XMLID_1_"  style="overflow:visible;fill:#FFFFFF;"/>
	<clipPath id="XMLID_3_">
		<use xlink:href="#XMLID_1_"  style="overflow:visible;"/>
	</clipPath>
</g>
<g>
	<g>
		<path class="st0" d="M50.2,204.5L50.2,204.5c-6.4,0-11.6,5.2-11.6,11.6v11.6l23.1-0.2v-11.4C61.7,209.7,56.6,204.5,50.2,204.5z"/>
		<path class="st0" d="M57.9,224.6v-8.2c0-4.3-3.5-7.8-7.8-7.8h0c-4.3,0-7.8,3.5-7.8,7.8v8.2"/>
		<path class="st0" d="M57.9,223.1"/>
		<path class="st0" d="M42.4,224.6"/>
		<path class="st1" d="M65,256.3H35.3c-1,0-1.9-0.8-1.9-1.9v-14.8c0-9.2,7.5-16.7,16.7-16.7h0c9.2,0,16.7,7.5,16.7,16.7v14.8
			C66.9,255.4,66,256.3,65,256.3z"/>
		<circle class="st0" cx="50.2" cy="238.9" r="3.8"/>
		<path class="st2" d="M61.2,236.8c0.6,1.4,0.9,2.9,0.9,4.5c0,6.6-5.3,11.9-11.9,11.9s-11.9-5.3-11.9-11.9s5.3-11.9,11.9-11.9
			c2,0,3.8,0.5,5.5,1.3"/>
		<path class="st0" d="M54.4,252.5c2.4-0.7,3.8-3.2,2.2-5.2c-1.5-1.9-3.8-3.1-6.3-3.1c-2.7,0-5.1,1.4-6.6,3.4
			c-1.4,1.9-0.8,3.8,2.3,4.9"/>
	</g>
	<g>
		<rect x="97.6" y="228.2" class="st1" width="12.1" height="28"/>
		<rect x="137.6" y="228.2" class="st1" width="12.1" height="28"/>
		<rect x="109.7" y="222.8" class="st1" width="27.8" height="33.4"/>
		<path class="st1" d="M130,256h-12.8v-14.2c0-0.7,0.5-1.2,1.2-1.2h10.4c0.7,0,1.2,0.5,1.2,1.2V256z"/>
		<line class="st1" x1="123.6" y1="240.6" x2="123.6" y2="255.9"/>
		<path class="st1" d="M116.1,235.7L116.1,235.7c-1.3,0-2.4-1.1-2.4-2.4v-3.8c0-1.3,1.1-2.4,2.4-2.4h0c1.3,0,2.4,1.1,2.4,2.4v3.8
			C118.6,234.6,117.5,235.7,116.1,235.7z"/>
		<path class="st1" d="M103.7,246.5L103.7,246.5c-1.3,0-2.4-1.1-2.4-2.4v-3.8c0-1.3,1.1-2.4,2.4-2.4l0,0c1.3,0,2.4,1.1,2.4,2.4v3.8
			C106.1,245.4,105,246.5,103.7,246.5z"/>
		<path class="st1" d="M143.6,246.5L143.6,246.5c-1.3,0-2.4-1.1-2.4-2.4v-3.8c0-1.3,1.1-2.4,2.4-2.4h0c1.3,0,2.4,1.1,2.4,2.4v3.8
			C146.1,245.4,145,246.5,143.6,246.5z"/>
		<path class="st1" d="M123.6,235.7L123.6,235.7c-1.3,0-2.4-1.1-2.4-2.4v-3.8c0-1.3,1.1-2.4,2.4-2.4h0c1.3,0,2.4,1.1,2.4,2.4v3.8
			C126,234.6,124.9,235.7,123.6,235.7z"/>
		<path class="st1" d="M131.2,235.7L131.2,235.7c-1.3,0-2.4-1.1-2.4-2.4v-3.8c0-1.3,1.1-2.4,2.4-2.4l0,0c1.3,0,2.4,1.1,2.4,2.4v3.8
			C133.6,234.6,132.5,235.7,131.2,235.7z"/>
		<path class="st3" d="M120,219.6h18.3c0.5,0,0.8,0.4,0.8,0.8v1.6c0,0.5-0.4,0.8-0.8,0.8h-29.5c-0.5,0-0.8-0.4-0.8-0.8v-1.6
			c0-0.5,0.4-0.8,0.8-0.8h7.6"/>
		<path class="st2" d="M114.6,219.6v-7.8c0-0.6,0.4-1.1,0.9-1.1h16.1c0.5,0,0.9,0.5,0.9,1.1v7.8"/>
		<path class="st3" d="M97.3,225.5h12.4v2.7H97.3c-0.8,0-1.4-0.6-1.4-1.4v0C95.9,226.1,96.5,225.5,97.3,225.5z"/>
		<path class="st3" d="M150,225.5h-12.3v2.7H150c0.8,0,1.4-0.6,1.4-1.4v0C151.3,226.1,150.7,225.5,150,225.5z"/>
		<line class="st3" x1="123.6" y1="213.1" x2="123.6" y2="217.5"/>
		<line class="st3" x1="125.8" y1="215.3" x2="121.4" y2="215.3"/>
	</g>
	<g>
		<path class="st4" d="M184.9,229.6c0.9,0,1.6,0.7,1.6,1.6v24.5h-7.2v-24.6c0-0.8,0.7-1.5,1.5-1.5H184.9 M184.9,228.6h-4.1
			c-1.4,0-2.5,1.1-2.5,2.5v25.6h9.2v-25.5C187.5,229.8,186.3,228.6,184.9,228.6L184.9,228.6z"/>
	</g>
	<g>
		<path class="st4" d="M218.7,229.6c0.8,0,1.5,0.7,1.5,1.5v24.6h-7.2v-24.5c0-0.9,0.7-1.6,1.6-1.6H218.7 M218.7,228.6h-4.1
			c-1.4,0-2.6,1.2-2.6,2.6v25.5h9.2v-25.6C221.2,229.8,220.1,228.6,218.7,228.6L218.7,228.6z"/>
	</g>
	<g>
		<path class="st4" d="M196.1,234.6c0.9,0,1.6,0.7,1.6,1.6v19.6h-7.2v-19.6c0-0.8,0.7-1.5,1.5-1.5H196.1 M196.1,233.6H192
			c-1.4,0-2.5,1.1-2.5,2.5v20.6h9.2v-20.6C198.7,234.8,197.5,233.6,196.1,233.6L196.1,233.6z"/>
	</g>
	<g>
		<path class="st4" d="M207.1,234.6c0.9,0,1.6,0.7,1.6,1.6v19.6h-7.2v-19.6c0-0.8,0.7-1.5,1.5-1.5H207.1 M207.1,233.6H203
			c-1.4,0-2.5,1.1-2.5,2.5v20.6h9.2v-20.6C209.8,234.8,208.6,233.6,207.1,233.6L207.1,233.6z"/>
	</g>
	<g>
		<path class="st4" d="M200.7,226.4c-5.8,0-10.5-4.7-10.5-10.5s4.7-10.5,10.5-10.5c5.8,0,10.5,4.7,10.5,10.5
			S206.4,226.4,200.7,226.4z"/>
		<path class="st4" d="M200.7,206c5.5,0,10,4.5,10,10s-4.5,10-10,10c-5.5,0-10-4.5-10-10S195.2,206,200.7,206 M200.7,205
			c-6,0-11,4.9-11,11s4.9,11,11,11c6,0,11-4.9,11-11S206.7,205,200.7,205L200.7,205z"/>
	</g>
	<g>
		<path class="st5" d="M203.5,219.8c-0.5,0.5-1.1,0.8-1.9,0.9v0.8c0,0.2-0.1,0.4-0.2,0.5c-0.1,0.1-0.3,0.2-0.5,0.2
			c-0.2,0-0.4-0.1-0.5-0.2c-0.1-0.1-0.2-0.3-0.2-0.5v-0.8c-0.5,0-1-0.1-1.4-0.3c-0.5-0.2-0.9-0.4-1.2-0.6c-0.1-0.1-0.2-0.2-0.2-0.3
			c0-0.1-0.1-0.2-0.1-0.3c0-0.2,0.1-0.3,0.2-0.5c0.1-0.1,0.2-0.2,0.4-0.2c0.1,0,0.2,0,0.2,0c0.1,0,0.2,0.1,0.3,0.1
			c0.4,0.3,0.8,0.4,1.1,0.6c0.4,0.1,0.8,0.2,1.2,0.2c0.6,0,1-0.1,1.3-0.3c0.3-0.2,0.5-0.5,0.5-1c0-0.2-0.1-0.4-0.3-0.6
			c-0.2-0.2-0.4-0.3-0.6-0.4c-0.3-0.1-0.6-0.2-1.1-0.3c-0.6-0.2-1.2-0.3-1.5-0.5c-0.4-0.2-0.7-0.4-1-0.8c-0.3-0.3-0.4-0.8-0.4-1.4
			c0-0.7,0.2-1.3,0.7-1.8c0.5-0.5,1.1-0.8,1.9-0.9v-0.8c0-0.2,0.1-0.4,0.2-0.5c0.1-0.1,0.3-0.2,0.5-0.2c0.2,0,0.4,0.1,0.5,0.2
			c0.1,0.1,0.2,0.3,0.2,0.5v0.8c0.9,0.1,1.6,0.4,2.2,0.9c0.2,0.2,0.3,0.4,0.3,0.6c0,0.2-0.1,0.3-0.2,0.5c-0.1,0.1-0.2,0.2-0.4,0.2
			c-0.1,0-0.2,0-0.2,0c-0.1,0-0.2-0.1-0.3-0.2c-0.3-0.2-0.7-0.4-1-0.6c-0.3-0.1-0.7-0.2-1.1-0.2c-0.5,0-0.9,0.1-1.3,0.3
			c-0.3,0.2-0.5,0.6-0.5,1c0,0.3,0.1,0.5,0.3,0.7c0.2,0.2,0.4,0.3,0.7,0.4c0.3,0.1,0.6,0.2,1.1,0.3c0.6,0.2,1.1,0.3,1.5,0.5
			c0.4,0.2,0.7,0.4,1,0.7c0.3,0.3,0.4,0.8,0.4,1.3C204.2,218.7,204,219.3,203.5,219.8z"/>
	</g>
	<g>
		<circle class="st0" cx="258.7" cy="236.7" r="3.5"/>
	</g>
	<path class="st2" d="M247.9,240v-16.2c0-1.1,0.7-2,1.6-2H303c0.9,0,1.6,0.9,1.6,2v25c0,1.1-0.7,2-1.6,2H270"/>
	<line class="st2" x1="278.5" y1="243" x2="296.5" y2="243"/>
	<line class="st2" x1="275.8" y1="232.6" x2="293.7" y2="232.6"/>
	<line class="st2" x1="281.5" y1="237.8" x2="299.5" y2="237.8"/>
	<path class="st0" d="M254.3,241.6h7.5c0.5,0,1-0.1,1.4-0.4l7-4.1c0.9-0.5,2-0.2,2.6,0.6l0,0c0.6,1,0.3,2.2-0.7,2.8l-7.6,4
		c-0.8,0.4-1.3,1.2-1.3,2v9.6l-8.5,0.1l0.1-10.1c0-0.2-0.1-0.2-0.1,0l-2.8,6.4c-0.3,1.1-1.5,1.7-2.6,1.3l0,0c-1-0.4-1.6-1.5-1.2-2.6
		l2.5-7C251.1,242.7,252.6,241.6,254.3,241.6z"/>
	<polygon class="st2" points="325.9,224.7 325.9,256.3 369.4,256.3 369.4,224.7 347.7,203.1 	"/>
	<path class="st2" d="M362,232.7h-8.4c-0.8,0-1.4,0.6-1.4,1.4v22.2h10.9v-22.5C363.1,233.2,362.6,232.7,362,232.7z"/>
	<path class="st2" d="M344.7,232.7h-12.8c-0.6,0-1.1,0.5-1.1,1.1v11.7c0,0.6,0.5,1.1,1.1,1.1h12.8c0.6,0,1.1-0.5,1.1-1.1v-11.7
		C345.8,233.2,345.3,232.7,344.7,232.7z"/>
	<polyline class="st2" points="357.2,212.5 357.2,205.4 366.4,205.4 366.4,221.8 	"/>
	<line class="st2" x1="333.5" y1="240.1" x2="336" y2="237.6"/>
	<line class="st2" x1="337.2" y1="242.7" x2="342.4" y2="237.6"/>
	<line class="st2" x1="389.2" y1="221.7" x2="389.2" y2="256.3"/>
	<line class="st2" x1="389.2" y1="239.6" x2="397.9" y2="230.9"/>
	<line class="st2" x1="389.2" y1="229.9" x2="382.1" y2="222.8"/>
	<circle class="st2" cx="389.1" cy="229.2" r="14"/>
</g>
<line class="st2" x1="0" y1="256.3" x2="436.5" y2="256.3"/>
</svg>
