<?xml version="1.0" encoding="utf-8"?>
<!-- Generator: Adobe Illustrator 23.0.4, SVG Export Plug-In . SVG Version: 6.00 Build 0)  -->
<svg version="1.1" id="Layer_1" xmlns="http://www.w3.org/2000/svg" xmlns:xlink="http://www.w3.org/1999/xlink" x="0px" y="0px"
	 viewBox="0 0 1024 768" style="enable-background:new 0 0 1024 768;" xml:space="preserve">
	<!--viewBox="0 0 1024 768"-->
<style type="text/css">
	.st0{fill:none;stroke:#62C19A;stroke-miterlimit:10;}
	.st1{fill:#FFFFFF;stroke:#62C19A;stroke-miterlimit:10;}
	.st2{fill:none;stroke:#62C19A;stroke-linecap:round;stroke-miterlimit:10;}
	.st3{fill:#FFFFFF;stroke:#62C19A;stroke-linecap:round;stroke-miterlimit:10;}
	.st4{fill:#62C19A;}
	.st5{fill:#FFFFFF;}
	.st6{fill:none;stroke:#62C19A;stroke-linecap:round;stroke-miterlimit:10;stroke-dasharray:1.9973,1.9973;}
</style>
<g>
	<g>
		<path class="st0" d="M202,442.9L202,442.9c-11.8,0-21.3,9.5-21.3,21.3v21.5l42.7-0.4v-21.1C223.3,452.4,213.8,442.9,202,442.9z"/>
		<path class="st0" d="M216.4,480v-15.2c0-7.9-6.4-14.3-14.3-14.3h0c-7.9,0-14.3,6.4-14.3,14.3V480"/>
		<path class="st0" d="M216.4,477.2"/>
		<path class="st0" d="M187.7,480"/>
		<path class="st1" d="M230.9,538.3h-57.9c-1,0-1.9-0.8-1.9-1.9v-43c0-9.2,7.5-16.7,16.7-16.7h28.2c9.2,0,16.7,7.5,16.7,16.7v43
			C232.8,537.5,232,538.3,230.9,538.3z"/>
		<circle class="st0" cx="202" cy="506.3" r="7"/>
		<path class="st2" d="M222.4,502.4c1,2.6,1.6,5.4,1.6,8.3c0,12.2-9.9,22-22,22s-22-9.9-22-22s9.9-22,22-22c3.6,0,7.1,0.9,10.1,2.4"
			/>
		<path class="st0" d="M209.8,531.4c4.5-1.2,7-6,4.1-9.7c-2.7-3.5-6.9-5.7-11.7-5.7c-5,0-9.5,2.5-12.2,6.3c-2.5,3.6-1.4,7,4.3,9"/>
	</g>
	<g>
		<rect x="289.6" y="486.6" class="st1" width="22.2" height="51.6"/>
		<rect x="363.3" y="486.6" class="st1" width="22.2" height="51.6"/>
		<rect x="311.8" y="476.7" class="st1" width="51.2" height="61.5"/>
		<path class="st1" d="M349.2,537.8h-23.6v-27.2c0-0.7,0.5-1.2,1.2-1.2H348c0.7,0,1.2,0.5,1.2,1.2V537.8z"/>
		<line class="st1" x1="337.4" y1="509.4" x2="337.4" y2="537.7"/>
		<path class="st1" d="M325.7,500.4h-4.1c-1.3,0-2.4-1.1-2.4-2.4v-11c0-1.3,1.1-2.4,2.4-2.4h4.1c1.3,0,2.4,1.1,2.4,2.4v11
			C328.1,499.3,327,500.4,325.7,500.4z"/>
		<path class="st1" d="M302.7,520.3h-4.1c-1.3,0-2.4-1.1-2.4-2.4v-11c0-1.3,1.1-2.4,2.4-2.4h4.1c1.3,0,2.4,1.1,2.4,2.4v11
			C305.1,519.3,304.1,520.3,302.7,520.3z"/>
		<path class="st1" d="M376.4,520.3h-4.1c-1.3,0-2.4-1.1-2.4-2.4v-11c0-1.3,1.1-2.4,2.4-2.4h4.1c1.3,0,2.4,1.1,2.4,2.4v11
			C378.9,519.2,377.8,520.3,376.4,520.3z"/>
		<path class="st1" d="M339.4,500.4h-4.1c-1.3,0-2.4-1.1-2.4-2.4v-11c0-1.3,1.1-2.4,2.4-2.4h4.1c1.3,0,2.4,1.1,2.4,2.4v11
			C341.8,499.3,340.8,500.4,339.4,500.4z"/>
		<path class="st1" d="M353.5,500.4h-4.1c-1.3,0-2.4-1.1-2.4-2.4v-11c0-1.3,1.1-2.4,2.4-2.4h4.1c1.3,0,2.4,1.1,2.4,2.4v11
			C355.9,499.3,354.8,500.4,353.5,500.4z"/>
		<path class="st3" d="M330.8,470.8h33.8c0.8,0,1.5,0.7,1.5,1.5v2.9c0,0.8-0.7,1.5-1.5,1.5h-54.4c-0.8,0-1.5-0.7-1.5-1.5v-2.9
			c0-0.8,0.7-1.5,1.5-1.5h14.1"/>
		<path class="st2" d="M320.9,470.8v-14.3c0-1.2,0.7-2.1,1.7-2.1h29.7c0.9,0,1.7,0.9,1.7,2.1v14.3"/>
		<path class="st3" d="M287.7,481.5h24.1v5.1h-24.1c-0.8,0-1.4-0.6-1.4-1.4v-2.3C286.4,482.2,287,481.5,287.7,481.5z"/>
		<path class="st3" d="M387.2,481.5h-23.9v5.1h23.9c0.8,0,1.4-0.6,1.4-1.4v-2.3C388.6,482.2,388,481.5,387.2,481.5z"/>
		<line class="st3" x1="337.4" y1="458.7" x2="337.4" y2="466.9"/>
		<line class="st3" x1="341.5" y1="462.8" x2="333.3" y2="462.8"/>
	</g>
	<g>
		<path class="st4" d="M452.6,488.4c0.9,0,1.6,0.7,1.6,1.6v48.2h-15v-48.3c0-0.8,0.7-1.5,1.5-1.5H452.6 M452.6,487.4h-11.9
			c-1.4,0-2.5,1.1-2.5,2.5v49.3h17V490C455.3,488.6,454.1,487.4,452.6,487.4L452.6,487.4z"/>
	</g>
	<g>
		<path class="st4" d="M514.9,488.4c0.8,0,1.5,0.7,1.5,1.5v48.3h-15V490c0-0.9,0.7-1.6,1.6-1.6H514.9 M514.9,487.4h-11.9
			c-1.4,0-2.6,1.2-2.6,2.6v49.2h17v-49.3C517.4,488.5,516.3,487.4,514.9,487.4L514.9,487.4z"/>
	</g>
	<g>
		<path class="st4" d="M473.3,497.5c0.9,0,1.6,0.7,1.6,1.6v39.1h-15v-39.2c0-0.8,0.7-1.5,1.5-1.5H473.3 M473.3,496.5h-11.9
			c-1.4,0-2.5,1.1-2.5,2.5v40.2h17v-40.1C475.9,497.7,474.7,496.5,473.3,496.5L473.3,496.5z"/>
	</g>
	<g>
		<path class="st4" d="M493.7,497.5c0.9,0,1.6,0.7,1.6,1.6v39.1h-15v-39.2c0-0.8,0.7-1.5,1.5-1.5H493.7 M493.7,496.5h-11.9
			c-1.4,0-2.5,1.1-2.5,2.5v40.2h17v-40.1C496.3,497.7,495.1,496.5,493.7,496.5L493.7,496.5z"/>
	</g>
	<g>
		<circle class="st4" cx="479.5" cy="464" r="19.7"/>
		<path class="st4" d="M479.5,444.8c10.6,0,19.2,8.6,19.2,19.2c0,10.6-8.6,19.2-19.2,19.2s-19.2-8.6-19.2-19.2
			C460.3,453.4,468.9,444.8,479.5,444.8 M479.5,443.8c-11.2,0-20.2,9-20.2,20.2c0,11.2,9,20.2,20.2,20.2s20.2-9,20.2-20.2
			C499.7,452.8,490.7,443.8,479.5,443.8L479.5,443.8z"/>
	</g>
	<g>
		<path class="st5" d="M484.8,471.1c-0.9,0.9-2,1.4-3.5,1.6v1.5c0,0.4-0.1,0.7-0.3,0.9c-0.2,0.2-0.5,0.3-0.9,0.3
			c-0.4,0-0.6-0.1-0.9-0.3c-0.2-0.2-0.3-0.5-0.3-0.9v-1.4c-0.9-0.1-1.8-0.3-2.6-0.6c-0.8-0.3-1.6-0.7-2.2-1.2
			c-0.2-0.1-0.3-0.3-0.4-0.5c-0.1-0.2-0.1-0.4-0.1-0.6c0-0.3,0.1-0.6,0.3-0.9c0.2-0.2,0.4-0.4,0.7-0.4c0.2,0,0.3,0,0.4,0.1
			c0.1,0.1,0.3,0.1,0.5,0.3c0.7,0.5,1.4,0.8,2.1,1c0.7,0.2,1.4,0.3,2.2,0.3c1,0,1.9-0.2,2.4-0.6c0.6-0.4,0.9-1,0.9-1.8
			c0-0.5-0.2-0.8-0.5-1.1c-0.3-0.3-0.7-0.5-1.2-0.7c-0.5-0.2-1.1-0.4-2-0.6c-1.2-0.3-2.1-0.6-2.9-0.9c-0.7-0.3-1.4-0.8-1.9-1.4
			c-0.5-0.6-0.8-1.5-0.8-2.5c0-1.3,0.5-2.3,1.4-3.2c0.9-0.9,2.1-1.4,3.6-1.7v-1.5c0-0.4,0.1-0.7,0.3-0.9c0.2-0.2,0.5-0.3,0.9-0.3
			c0.4,0,0.6,0.1,0.9,0.3c0.2,0.2,0.3,0.5,0.3,0.9v1.5c1.6,0.2,2.9,0.8,4.1,1.7c0.4,0.3,0.6,0.6,0.6,1.1c0,0.3-0.1,0.6-0.3,0.9
			c-0.2,0.2-0.4,0.4-0.7,0.4c-0.1,0-0.3,0-0.4-0.1c-0.1,0-0.3-0.1-0.5-0.3c-0.6-0.5-1.2-0.8-1.8-1c-0.6-0.2-1.2-0.3-2-0.3
			c-1,0-1.7,0.2-2.3,0.6c-0.6,0.4-0.9,1-0.9,1.8c0,0.5,0.2,0.9,0.5,1.3c0.3,0.3,0.7,0.6,1.2,0.7c0.5,0.2,1.2,0.4,2,0.6
			c1.1,0.3,2.1,0.6,2.8,0.9c0.7,0.3,1.3,0.7,1.8,1.3c0.5,0.6,0.8,1.4,0.8,2.4C486.1,469.1,485.6,470.2,484.8,471.1z"/>
	</g>
	<g>
		<circle class="st0" cx="586.6" cy="502.3" r="6.5"/>
	</g>
	<path class="st2" d="M566.7,508.3v-29.8c0-2,1.3-3.7,2.9-3.7h98.6c1.6,0,2.9,1.6,2.9,3.7v46.1c0,2-1.3,3.7-2.9,3.7h-60.7"/>
	<line class="st2" x1="623.1" y1="514" x2="656.2" y2="514"/>
	<line class="st2" x1="618" y1="494.7" x2="651.2" y2="494.7"/>
	<line class="st2" x1="628.6" y1="504.4" x2="661.7" y2="504.4"/>
	<path class="st0" d="M578.5,511.4h13.9c0.9,0,1.8-0.2,2.5-0.7l13-7.6c1.7-1,3.8-0.5,4.8,1.2v0c1.1,1.8,0.5,4.1-1.4,5.1l-14,7.3
		c-1.4,0.7-2.3,2.2-2.3,3.8v17.7l-15.7,0.2l0.2-18.6c0-0.4-0.1-0.4-0.2-0.1l-5.2,11.8c-0.6,2-2.8,3.1-4.8,2.4l0,0
		c-1.9-0.7-2.9-2.8-2.3-4.7l4.6-12.8C572.6,513.3,575.3,511.4,578.5,511.4z"/>
	<polygon class="st2" points="710.5,480.2 710.5,538.3 790.7,538.3 790.7,480.2 750.7,440.2 	"/>
	<path class="st2" d="M778,494.8h-17.6c-0.8,0-1.4,0.6-1.4,1.4v42.2h20v-42.4C779.1,495.3,778.6,494.8,778,494.8z"/>
	<path class="st2" d="M746,494.8h-25.5c-0.6,0-1.1,0.5-1.1,1.1v23.5c0,0.6,0.5,1.1,1.1,1.1H746c0.6,0,1.1-0.5,1.1-1.1v-23.5
		C747.2,495.3,746.7,494.8,746,494.8z"/>
	<polyline class="st2" points="768.2,457.7 768.2,444.6 785.3,444.6 785.3,474.8 	"/>
	<line class="st2" x1="724.5" y1="508.5" x2="729.1" y2="504"/>
	<line class="st2" x1="731.3" y1="513.4" x2="740.8" y2="503.8"/>
	<line class="st2" x1="827.2" y1="474.6" x2="827.2" y2="538.3"/>
	<line class="st2" x1="827.2" y1="507.7" x2="843.2" y2="491.6"/>
	<line class="st2" x1="827.2" y1="489.8" x2="814" y2="476.7"/>
	<circle class="st2" cx="827.1" cy="488.4" r="25.7"/>
</g>
<line class="st2" x1="22" y1="539.1" x2="994" y2="539.1"/>
<path class="st2" d="M130,475.5C130,475.5,130,475.5,130,475.5c-0.3-5-4.4-9-9.5-9c-5.1,0-9.3,4-9.5,9.1c-2.8,0.5-5,2.9-5,5.9
	c0,3.3,2.7,6,6,6h18c3.3,0,6-2.7,6-6S133.3,475.5,130,475.5z"/>
<path class="st2" d="M52.7,471.1C52.7,471.1,52.7,471.1,52.7,471.1c0.3-5.6,4.9-10.1,10.6-10.1c5.7,0,10.4,4.5,10.6,10.2
	c3.2,0.5,5.6,3.3,5.6,6.6c0,3.7-3,6.7-6.7,6.7H52.7c-3.7,0-6.7-3-6.7-6.7C46,474.1,49,471.1,52.7,471.1z"/>
<ellipse class="st3" cx="69.5" cy="489.5" rx="13" ry="24"/>
<line class="st2" x1="69.5" y1="476.5" x2="69.5" y2="538.3"/>
<polyline class="st2" points="75.7,501.3 69.5,507.5 63.3,501.3 "/>
<polyline class="st2" points="75.7,491.7 69.5,498 63.3,491.7 "/>
<polyline class="st2" points="86.8,491.2 96.5,481.5 106.2,491.2 "/>
<polyline class="st2" points="86.8,499.8 96.5,490.1 106.2,499.8 "/>
<polyline class="st2" points="86.8,506.8 96.5,497.1 106.2,506.8 "/>
<polyline class="st2" points="86.8,513.8 96.5,504.1 106.2,513.8 "/>
<line class="st2" x1="96.5" y1="481.5" x2="96.5" y2="538.3"/>
<g>
	<path class="st0" d="M913.2,534.2c6.9,0.2,13.8-2.3,19.1-7.6s7.8-12.2,7.6-19.1c-6.5-0.1-13-2.6-18-7.6c-4.9-4.9-7.4-11.3-7.6-17.7
		c-6.8-0.1-13.6,2.4-18.7,7.6c-5.2,5.2-7.7,12-7.6,18.7c6.4,0.2,12.8,2.7,17.7,7.6C910.6,521.1,913.1,527.6,913.2,534.2z"/>
	<path class="st0" d="M914.2,482.2c6.5,0.1,13,2.6,18,7.6c4.9,4.9,7.4,11.3,7.6,17.7"/>
	<path class="st0" d="M913.2,534.2c-6.4-0.2-12.8-2.7-17.7-7.6c-5-5-7.5-11.5-7.6-18"/>
</g>
<line class="st0" x1="932.1" y1="490" x2="895.3" y2="526.8"/>
<line class="st0" x1="895.7" y1="490" x2="932.4" y2="526.8"/>
<g>
	<circle class="st1" cx="939.5" cy="523.5" r="15"/>
	<g>
		<g>
			<g>
				<path class="st2" d="M948.5,511.5c-0.3,0.2-0.6,0.4-0.8,0.6"/>
				<path class="st6" d="M946.2,513.4c-2.5,2.6-3.7,6-3.7,10.1c0,4.3,1.6,8,4.4,10.7"/>
				<path class="st2" d="M947.7,534.9c0.3,0.2,0.5,0.4,0.8,0.6"/>
			</g>
		</g>
	</g>
	<g>
		<g>
			<g>
				<path class="st2" d="M930.5,511.5c0.3,0.2,0.6,0.4,0.8,0.6"/>
				<path class="st6" d="M932.8,513.4c2.5,2.6,3.7,6,3.7,10.1c0,4.3-1.6,8-4.4,10.7"/>
				<path class="st2" d="M931.3,534.9c-0.3,0.2-0.5,0.4-0.8,0.6"/>
			</g>
		</g>
	</g>
</g>
</svg>
