<svg id="Layer_1" data-name="Layer 1" xmlns="http://www.w3.org/2000/svg" viewBox="25 20 58 35">
    <defs>
        <style>.cls-1{fill:#fff;}.cls-2{fill:#fff;}.cls-3{fill:none;}</style>
    </defs>
    <title>logo-nl</title>
    <path class="cls-1"
          d="M0,21.32a14.27,14.27,0,0,1,28.53,0V34.55H21.19V21.9a7.14,7.14,0,0,0-6.93-7.23,7.15,7.15,0,0,0-6.92,7.25V34.55H0V21.32Z"
          transform="translate(28.35 21.15)"/>
    <path class="cls-2"
          d="M49.53,17.82A18.08,18.08,0,0,0,31.51,0h0A18,18,0,0,0,18.33,5.79,16.35,16.35,0,0,1,26.63,11a8.35,8.35,0,0,1,4.88-1.59,9,9,0,0,1,8.75,9.13v16h9.27V17.82Z"
          transform="translate(28.35 21.15)"/>
    <!--<path class="cls-3" d="M211.31,77.07H-28.35V-21.15H211.31" transform="translate(28.35 21.15)"/>-->
</svg>